<?xml version="1.0" encoding="UTF-8" standalone="no"?>
<!-- Created with Inkscape (http://www.inkscape.org/) -->

<svg
   xmlns:dc="http://purl.org/dc/elements/1.1/"
   xmlns:cc="http://creativecommons.org/ns#"
   xmlns:rdf="http://www.w3.org/1999/02/22-rdf-syntax-ns#"
   xmlns:svg="http://www.w3.org/2000/svg"
   xmlns="http://www.w3.org/2000/svg"
   xmlns:sodipodi="http://sodipodi.sourceforge.net/DTD/sodipodi-0.dtd"
   xmlns:inkscape="http://www.inkscape.org/namespaces/inkscape"
   width="1000"
   height="1006.243"
   id="svg3371"
   version="1.1"
   inkscape:version="0.48.5 r10040"
   sodipodi:docname="drawing.svg">
  <defs
     id="defs3373">
    <clipPath
       clipPathUnits="userSpaceOnUse"
       id="clipPath3107">
      <path
         inkscape:connector-curvature="0"
         d="m 44.84,690.135 223.422,0 0,89.05 -223.422,0 0,-89.05 z"
         id="path3109" />
    </clipPath>
    <clipPath
       clipPathUnits="userSpaceOnUse"
       id="clipPath3642">
      <path
         inkscape:connector-curvature="0"
         d="m 0,0 841.89,0 0,595.276 L 0,595.276 0,0 z"
         id="path3644" />
    </clipPath>
    <clipPath
       clipPathUnits="userSpaceOnUse"
       id="clipPath3630">
      <path
         inkscape:connector-curvature="0"
         d="m 376.789,83.93 88.972,0 0,89.527 -88.972,0 0,-89.527 z"
         id="path3632" />
    </clipPath>
  </defs>
  <sodipodi:namedview
     id="base"
     pagecolor="#ffffff"
     bordercolor="#666666"
     borderopacity="1.0"
     inkscape:pageopacity="0.0"
     inkscape:pageshadow="2"
     inkscape:zoom="0.28334961"
     inkscape:cx="914.71032"
     inkscape:cy="-167.50725"
     inkscape:document-units="px"
     inkscape:current-layer="layer1"
     showgrid="false"
     fit-margin-left="0.5"
     fit-margin-top="0.5"
     fit-margin-bottom="0.5"
     fit-margin-right="0.5"
     inkscape:window-width="1029"
     inkscape:window-height="1026"
     inkscape:window-x="885"
     inkscape:window-y="-8"
     inkscape:window-maximized="0" />
  <metadata
     id="metadata3376">
    <rdf:RDF>
      <cc:Work
         rdf:about="">
        <dc:format>image/svg+xml</dc:format>
        <dc:type
           rdf:resource="http://purl.org/dc/dcmitype/StillImage" />
        <dc:title></dc:title>
      </cc:Work>
    </rdf:RDF>
  </metadata>
  <g
     inkscape:label="Layer 1"
     inkscape:groupmode="layer"
     id="layer1"
     transform="translate(-459.32755,654.22266)">
    <g
       transform="matrix(11.228378,0,0,-11.228378,-3770.913,1293.9181)"
       id="g3626">
      <g
         id="g3628"
         clip-path="url(#clipPath3630)">
        <g
           id="g3634"
           transform="translate(421.275,83.9293)">
          <path
             inkscape:connector-curvature="0"
             d="M 0,0 C 24.57,0 44.487,20.114 44.487,44.924 44.487,69.737 24.57,89.851 0,89.851 -24.568,89.851 -44.485,69.737 -44.485,44.924 -44.485,20.114 -24.568,0 0,0"
             style="fill:#000000;fill-opacity:1;fill-rule:nonzero;stroke:none"
             id="path3636" />
        </g>
      </g>
    </g>
    <g
       transform="matrix(11.228378,0,0,-11.228378,-3770.913,1293.9181)"
       id="g3638">
      <g
         id="g3640"
         clip-path="url(#clipPath3642)">
        <g
           id="g3646"
           transform="translate(421.2753,168.9214)">
          <path
             inkscape:connector-curvature="0"
             d="m 0,0 c -22.069,0 -40.068,-17.998 -40.068,-40.066 0,-22.068 17.999,-40.068 40.068,-40.068 22.068,0 40.068,18 40.068,40.068 C 40.068,-17.998 22.068,0 0,0 m 0,-78.139 c -20.969,0 -38.071,17.103 -38.071,38.073 0,20.969 17.102,38.072 38.071,38.072 20.969,0 38.072,-17.103 38.072,-38.072 0,-20.97 -17.103,-38.073 -38.072,-38.073 m -2.95,9.464 c 1.121,1.031 1.846,2.293 1.846,3.364 0,1.508 -1.203,2.483 -3.155,2.483 -3.235,0 -4.095,-1.03 -7.871,-1.03 -0.786,0 -1.795,0.22 -1.795,1.047 0,0.935 1.316,1.412 3.776,1.684 3.743,0.408 8.077,1.734 8.077,4.859 0,1.609 -1.084,2.468 -2.804,2.468 -2.767,0 -3.24,-2.199 -3.702,-2.879 -0.636,-0.935 -1.159,-0.194 -1.159,-0.599 0,-0.373 0.669,-0.486 0.747,-0.486 1.982,0 1.571,2.281 3.366,2.281 0.411,0 0.748,-0.41 0.748,-0.896 0,-2.543 -3.833,-3.397 -7.534,-3.397 -4.898,0 -7.953,0.677 -10.75,1.829 0.875,-0.112 1.804,-0.169 2.787,-0.169 7.717,0 11.448,2.954 11.448,5.217 0,1.795 -1.281,2.833 -3.335,2.833 -4.828,0 -6.859,-2.979 -10.246,-2.979 -1.007,0 -1.726,0.119 -1.726,0.897 0,0.892 1.273,1.355 1.273,2.345 0,0.505 -0.427,0.757 -0.706,0.757 -0.128,0 -0.248,-0.043 -0.248,-0.136 0,-0.132 0.093,-0.125 0.093,-0.36 0,-1.395 -3.594,-1.456 -3.594,-3.144 0,-1.355 1.849,-1.807 3.105,-1.807 4.745,0 7.707,2.922 10.164,2.922 1.29,0 2.152,-0.591 2.152,-1.981 0,-1.673 -2.089,-3.48 -8.472,-3.48 -10.24,0 -13.596,6.111 -13.596,14.126 0,6.391 4.151,11.608 9.648,15.178 0.384,-0.369 0.605,-0.839 0.605,-1.318 0,-2.524 -4.068,-1.934 -4.068,-3.859 0,-2.055 3.874,-1.35 3.874,-2.761 0,-0.692 -0.564,-0.869 -0.564,-1.106 0,-0.122 0.123,-0.17 0.245,-0.17 0.596,0 1.72,0.716 1.72,1.933 0,1.527 -2.532,1.141 -2.532,2.088 0,1.295 4.088,0.88 4.088,4.3 0,0.827 -0.434,1.602 -1.106,2.231 4.754,2.555 10.159,3.964 14.676,3.964 3.018,0 3.167,-1.17 3.167,-1.601 0,-0.528 -0.327,-0.938 -0.641,-1.04 -0.086,-0.026 -0.148,-0.058 -0.154,-0.103 -0.013,-0.087 0.118,-0.175 0.309,-0.175 1.581,0 2.759,0.97 2.759,2.374 0,1.304 -1.474,2.925 -3.553,4.389 0.416,0.014 0.854,0.02 1.322,0.02 1.624,0 3.078,0.711 3.078,1.509 0,2.842 -6.055,0.921 -7.225,3.201 1.908,0.37 3.693,1.232 5.066,2.299 0.477,-0.339 0.734,-0.767 0.734,-1.14 0,-1.433 -1.42,-1.103 -1.42,-1.416 0,-0.314 0.395,-0.472 0.96,-0.472 1.211,0 2.388,0.792 2.388,1.886 0,0.89 -0.591,1.64 -1.579,2.113 0.994,1.038 1.596,2.17 1.596,3.187 0,2.019 -1.579,2.789 -4.153,2.789 -2.985,0 -7.369,-1.176 -12.274,-3.875 -3.254,-1.792 -6.216,-3.966 -8.365,-6.091 -2.145,-2.128 -3.491,-4.206 -3.491,-5.833 0,-1.805 1.825,-2.674 5.79,-2.674 4.298,0 7.517,1.734 10.808,3.069 1.71,0.691 3.056,1.071 4.561,1.265 1.455,-0.907 2.614,-1.872 3.09,-2.53 0.072,-0.099 0.077,-0.168 -0.098,-0.132 -0.64,0.135 -1.488,0.216 -2.451,0.216 -3.853,0 -10.133,-1.433 -15.787,-4.534 -0.871,0.524 -1.922,0.845 -2.925,0.845 -6.831,0 -10.049,-7.441 -10.049,-15.438 0,-1.95 0.125,-3.852 0.418,-5.517 0.614,-3.497 2.119,-6.758 4.877,-9.04 2.666,-2.421 7.277,-5.454 17.505,-6.159 -0.561,0 -2.814,-0.842 -2.814,-2.069 0,-1.074 1.166,-1.645 3.401,-1.645 2.925,0 4.757,0.93 6.539,0.93 1.77,0 2.593,-0.789 2.593,-2.246 0,-0.682 -0.216,-1.256 -0.56,-1.726 -1.76,1.235 -4.109,2.12 -6.798,2.12 -2.418,0 -4.692,-1.094 -4.692,-2.763 0,-1.545 1.875,-2.367 3.316,-2.367 0.759,0 1.171,0.243 1.171,0.488 0,0.106 -0.108,0.152 -0.284,0.152 -0.634,0 -1.785,0.69 -1.785,1.755 0,1.037 0.906,1.714 2.575,1.714 0.689,0 0.887,-0.02 1.317,-0.092 0.185,-0.031 0.191,-0.103 0.03,-0.123 -0.668,-0.082 -1.634,-0.721 -1.634,-1.717 0,-1.358 1.338,-2.037 3.179,-2.037 1.361,0 2.698,0.512 3.807,1.271 0.655,-0.723 1.032,-1.522 1.032,-2.293 0,-1.192 -1.027,-2.034 -2.863,-2.034 -1.026,0 -2.374,0.2 -3.999,0.637 -2.389,0.642 -5.504,1.826 -8.314,3.668 -3.837,2.515 -5.927,4.249 -5.927,5.856 0,0.75 0.537,1.16 1.074,1.16 2.158,0 1.873,-3.125 4.265,-3.125 0.775,0 1.214,0.497 1.214,0.993 0,0.185 -0.08,0.202 -0.149,0.202 -0.179,0 -0.36,-0.282 -0.753,-0.282 -0.694,0 -0.987,0.522 -1.259,1.086 -0.857,1.768 -1.912,3.253 -4.155,3.253 -1.532,0 -2.692,-0.787 -2.692,-2.283 0,-3.027 3.552,-5.533 7.061,-7.722 3.803,-2.372 8.121,-4.168 10.332,-4.681 2.011,-0.467 3.689,-0.659 4.72,-0.659 2.107,0 3.576,1.048 3.576,2.833 0,1.256 -0.829,2.788 -2.262,4.105 m -5.658,55.668 c 0,0.014 -0.002,0.028 -0.002,0.042 0,1.313 1.716,2.01 3.147,2.01 0.253,0 0.489,-0.022 0.711,-0.057 -0.973,-0.964 -2.37,-1.688 -3.856,-1.995 m -10.82,-8.073 c -1.288,0 -1.954,0.539 -1.954,1.401 0,1.04 1.059,1.231 1.059,2.301 0,0.716 -0.615,1.294 -1.126,1.294 -0.208,0 -0.355,-0.053 -0.355,-0.178 0,-0.161 0.283,-0.176 0.283,-0.545 0,-1.223 -2.491,-0.813 -2.491,-2.542 0,-1.089 0.704,-2.005 2.85,-2.407 0.365,-0.068 0.263,-0.109 0.006,-0.169 -0.358,-0.088 -0.913,-0.117 -1.767,-0.117 -2.223,0 -3.309,0.83 -3.309,1.883 0,2.452 4.273,7.037 8.775,9.688 5.544,3.263 9.374,4.106 11.545,4.106 1.794,0 2.507,-0.441 2.507,-1.778 0,-0.689 -0.222,-1.351 -0.605,-1.957 -0.299,0.037 -0.612,0.057 -0.939,0.057 -3.878,0 -5.341,-1.481 -5.391,-3.119 -1.32,0.037 -2.048,0.453 -2.048,1.209 0,1.714 3.222,1.341 3.222,3.181 0,0.289 -0.139,0.536 -0.251,0.536 -0.329,0 0.073,-1.102 -2.828,-1.489 -2.011,-0.269 -3.07,-0.733 -3.07,-1.902 0,-1.715 1.911,-2.42 4.927,-2.42 0.053,0 0.107,0.003 0.161,0.004 0.485,-1.577 2.46,-2.152 4.561,-2.035 1.511,0.084 2.655,-0.016 2.655,-0.69 0,-0.808 -1.515,-0.971 -3.323,-0.971 -0.176,0 -0.351,-0.004 -0.523,-0.012 -2.905,1.766 -6.517,3.132 -9.049,3.132 -1.676,0 -3.065,-0.563 -3.065,-2.02 0,-1.423 1.65,-2.238 2.792,-2.238 0.644,0 1.161,0.059 1.161,0.349 0,0.286 -1.126,0.464 -1.126,1.285 0,0.652 0.579,0.977 1.407,0.977 1.764,0 3.861,-0.775 5.699,-1.758 -3.965,-0.807 -7.207,-3.056 -10.39,-3.056 m -6.942,-5.919 c 0.351,0 0.676,-0.056 0.969,-0.151 -3.406,-2.252 -6.394,-5.178 -8.203,-8.841 -0.147,-0.294 -0.153,-0.279 -0.153,0.127 0,4.457 3.373,8.865 7.387,8.865 m 17.205,-41.503 c 0,0.493 0.528,0.893 1.729,0.893 0.529,0 1.47,-0.198 2.01,-0.517 0.217,-0.131 0.423,-0.268 0.618,-0.41 -0.84,-0.616 -1.922,-0.91 -2.755,-0.91 -1.038,0 -1.602,0.436 -1.602,0.944 m 35.164,43.622 c -1.003,0 -2.053,-0.321 -2.925,-0.845 -5.653,3.101 -11.933,4.534 -15.788,4.534 -0.962,0 -1.809,-0.081 -2.449,-0.216 -0.177,-0.036 -0.171,0.033 -0.1,0.132 0.476,0.658 1.635,1.623 3.091,2.53 1.504,-0.194 2.85,-0.574 4.562,-1.265 3.291,-1.333 6.51,-3.069 10.808,-3.069 3.964,0 5.788,0.869 5.788,2.674 0,1.627 -1.344,3.705 -3.49,5.833 -2.15,2.125 -5.111,4.299 -8.365,6.091 -4.905,2.699 -9.288,3.875 -12.273,3.875 -2.575,0 -4.155,-0.77 -4.155,-2.787 0,-1.02 0.602,-2.151 1.597,-3.189 -0.988,-0.473 -1.58,-1.225 -1.58,-2.113 0,-1.094 1.179,-1.886 2.389,-1.886 0.565,0 0.96,0.158 0.96,0.471 0,0.314 -1.42,-0.015 -1.42,1.416 0,0.374 0.258,0.802 0.734,1.141 1.374,-1.067 3.158,-1.931 5.067,-2.298 -1.171,-2.281 -7.225,-0.36 -7.225,-3.202 0,-0.798 1.451,-1.511 3.075,-1.511 0.47,0 0.908,-0.004 1.324,-0.016 -2.08,-1.466 -3.552,-3.086 -3.552,-4.391 0,-1.404 1.175,-2.374 2.758,-2.374 0.191,0 0.323,0.088 0.309,0.173 -0.006,0.047 -0.068,0.079 -0.155,0.105 -0.311,0.102 -0.64,0.512 -0.64,1.04 0,0.431 0.149,1.601 3.167,1.601 4.517,0 9.921,-1.408 14.677,-3.964 -0.674,-0.629 -1.108,-1.404 -1.108,-2.231 0,-3.42 4.089,-3.005 4.089,-4.3 0,-0.947 -2.531,-0.561 -2.531,-2.087 0,-1.218 1.124,-1.934 1.719,-1.934 0.124,0 0.247,0.048 0.247,0.17 0,0.237 -0.566,0.414 -0.566,1.106 0,1.412 3.875,0.706 3.875,2.761 0,1.925 -4.069,1.336 -4.069,3.859 0,0.479 0.222,0.949 0.606,1.318 5.496,-3.57 9.647,-8.787 9.647,-15.178 0,-8.015 -3.356,-14.125 -13.596,-14.125 -6.383,0 -8.472,1.806 -8.472,3.48 0,1.389 0.862,1.98 2.153,1.98 2.456,0 5.418,-2.922 10.164,-2.922 1.254,0 3.104,0.453 3.104,1.808 0,1.689 -3.594,1.748 -3.594,3.143 0,0.235 0.094,0.228 0.094,0.36 0,0.093 -0.121,0.136 -0.249,0.136 -0.279,0 -0.706,-0.251 -0.706,-0.757 0,-0.99 1.273,-1.455 1.273,-2.345 0,-0.778 -0.719,-0.897 -1.725,-0.897 -3.388,0 -5.417,2.979 -10.248,2.979 -2.053,0 -3.333,-1.038 -3.333,-2.833 0,-2.263 3.73,-5.217 11.448,-5.217 0.983,0 1.911,0.058 2.787,0.169 -2.798,-1.152 -5.853,-1.829 -10.751,-1.829 -3.701,0 -7.533,0.854 -7.533,3.395 0,0.488 0.336,0.899 0.747,0.899 1.795,0 1.384,-2.281 3.366,-2.281 0.077,0 0.748,0.112 0.748,0.486 0,0.404 -0.524,-0.337 -1.159,0.598 -0.463,0.68 -0.936,2.879 -3.702,2.879 -1.72,0 -2.805,-0.86 -2.805,-2.467 0,-3.126 4.334,-4.452 8.078,-4.862 2.46,-0.27 3.776,-0.747 3.776,-1.681 0,-0.828 -1.01,-1.048 -1.795,-1.048 -3.777,0 -4.637,1.03 -7.872,1.03 -1.952,0 -3.156,-0.975 -3.156,-2.484 0,-1.071 0.727,-2.333 1.848,-3.361 -1.434,-1.319 -2.262,-2.851 -2.262,-4.107 0,-1.784 1.468,-2.833 3.575,-2.833 1.031,0 2.711,0.192 4.72,0.659 2.212,0.513 6.528,2.309 10.332,4.681 3.509,2.189 7.062,4.693 7.062,7.724 0,1.496 -1.16,2.281 -2.693,2.281 -2.243,0 -3.299,-1.485 -4.154,-3.253 -0.273,-0.564 -0.566,-1.086 -1.259,-1.086 -0.394,0 -0.575,0.282 -0.753,0.282 -0.068,0 -0.15,-0.017 -0.15,-0.202 0,-0.496 0.44,-0.993 1.215,-0.993 2.391,0 2.107,3.125 4.264,3.125 0.538,0 1.076,-0.41 1.076,-1.16 0,-1.607 -2.091,-3.341 -5.929,-5.857 -2.809,-1.841 -5.924,-3.025 -8.315,-3.667 -1.623,-0.437 -2.972,-0.637 -3.999,-0.637 -1.834,0 -2.861,0.842 -2.861,2.034 0,0.771 0.376,1.57 1.031,2.293 1.109,-0.759 2.447,-1.271 3.807,-1.271 1.842,0 3.18,0.679 3.18,2.037 0,0.998 -0.967,1.635 -1.635,1.717 -0.16,0.02 -0.154,0.092 0.031,0.123 0.429,0.072 0.627,0.092 1.316,0.092 1.669,0 2.574,-0.677 2.574,-1.714 0,-1.064 -1.15,-1.757 -1.783,-1.757 -0.177,0 -0.284,-0.044 -0.284,-0.15 0,-0.245 0.41,-0.488 1.172,-0.488 1.44,0 3.315,0.822 3.315,2.367 0,1.669 -2.275,2.764 -4.694,2.764 -2.688,0 -5.036,-0.887 -6.795,-2.12 -0.346,0.469 -0.563,1.043 -0.563,1.725 0,1.457 0.824,2.246 2.595,2.246 1.781,0 3.613,-0.93 6.538,-0.93 2.236,0 3.4,0.571 3.4,1.645 0,1.227 -2.251,2.07 -2.813,2.07 10.228,0.704 14.839,3.737 17.505,6.158 2.757,2.281 4.263,5.543 4.878,9.04 0.293,1.665 0.419,3.566 0.419,5.517 0,7.997 -3.219,15.438 -10.051,15.438 M 4.788,-11.011 c 0.222,0.034 0.457,0.056 0.711,0.056 1.432,0 3.147,-0.697 3.147,-2.01 0,-0.014 -0.002,-0.028 -0.002,-0.042 -1.486,0.305 -2.882,1.031 -3.856,1.996 m 1.583,-6.728 c -1.809,0 -3.324,0.163 -3.324,0.971 0,0.674 1.143,0.774 2.655,0.69 2.102,-0.117 4.075,0.457 4.562,2.035 0.054,-0.002 0.108,-0.004 0.161,-0.004 3.016,0 4.928,0.705 4.928,2.42 0,1.169 -1.061,1.633 -3.073,1.902 -2.898,0.387 -2.498,1.49 -2.827,1.49 -0.112,0 -0.249,-0.248 -0.249,-0.537 0,-1.84 3.221,-1.467 3.221,-3.181 0,-0.756 -0.729,-1.172 -2.048,-1.209 -0.051,1.638 -1.514,3.119 -5.392,3.119 -0.327,0 -0.64,-0.02 -0.94,-0.057 -0.382,0.606 -0.605,1.268 -0.605,1.957 0,1.337 0.713,1.778 2.508,1.778 2.171,0 6.002,-0.843 11.545,-4.105 4.502,-2.65 8.775,-7.237 8.775,-9.689 0,-1.054 -1.085,-1.883 -3.308,-1.883 -0.855,0 -1.41,0.029 -1.766,0.115 -0.258,0.063 -0.361,0.103 0.004,0.171 2.146,0.403 2.85,1.318 2.85,2.407 0,1.729 -2.492,1.319 -2.492,2.542 0,0.369 0.284,0.384 0.284,0.545 0,0.125 -0.147,0.178 -0.356,0.178 -0.508,0 -1.123,-0.578 -1.123,-1.292 0,-1.07 1.059,-1.263 1.059,-2.303 0,-0.86 -0.669,-1.401 -1.956,-1.401 -3.183,0 -6.425,2.251 -10.389,3.056 1.839,0.983 3.935,1.758 5.698,1.758 0.828,0 1.406,-0.325 1.406,-0.977 0,-0.821 -1.124,-0.999 -1.124,-1.285 0,-0.29 0.518,-0.349 1.162,-0.349 1.141,0 2.79,0.815 2.79,2.24 0,1.455 -1.389,2.02 -3.065,2.02 -2.533,0 -6.144,-1.369 -9.048,-3.134 -0.173,0.008 -0.348,0.012 -0.523,0.012 m 27.27,-18.252 c -1.81,3.663 -4.798,6.589 -8.204,8.84 0.293,0.096 0.618,0.152 0.97,0.152 4.012,0 7.387,-4.408 7.387,-8.865 0,-0.406 -0.008,-0.421 -0.153,-0.127 M 7.472,-67.609 c 1.201,0 1.729,-0.4 1.729,-0.893 0,-0.508 -0.565,-0.946 -1.602,-0.946 -0.832,0 -1.915,0.296 -2.755,0.912 0.195,0.142 0.4,0.279 0.62,0.41 0.539,0.319 1.48,0.517 2.008,0.517 m -18.093,30.845 c 0.699,0.111 0.895,0.723 0.895,1.545 l 0.024,4.105 c 0,0.889 -0.23,1.471 -0.891,1.544 l 0,0.622 3.134,0 0.002,-0.622 c -0.683,-0.092 -0.893,-0.721 -0.893,-1.544 l -0.027,-2.066 0.001,-2.039 c 0,-0.886 0.208,-1.424 0.927,-1.543 l 10e-4,-0.622 -3.171,0 -0.002,0.62 z m 22.256,-0.617 2.316,0 c -0.061,1.971 0.894,3.461 2,4.106 0.326,-0.927 0.626,-1.817 0.756,-2.212 0.263,-0.805 0.131,-1.197 -0.568,-1.309 l 0.002,-0.62 3.611,0 0,0.623 c -0.856,0.286 -1.151,0.436 -1.611,1.633 -0.331,0.863 -0.592,1.578 -0.82,2.231 0.653,-0.065 0.656,-0.491 1.079,-0.491 0.395,0 0.582,0.409 0.582,0.729 0,0.632 -0.43,1.084 -1.272,1.084 -0.278,0 -0.55,-0.025 -0.819,-0.075 -0.033,0.095 -0.064,0.189 -0.096,0.285 -0.479,1.409 -0.334,1.703 0.348,1.797 l -0.001,0.62 -4.679,0 0,-0.621 c 0.233,-0.026 0.44,-0.094 0.44,-0.342 0,-0.452 -1.952,-1.406 -1.952,-4.689 0,-0.905 0.138,-1.792 0.684,-2.749 m 2.933,7.028 c 0.264,0 0.363,-0.249 0.453,-0.454 0.147,-0.337 0.341,-0.839 0.543,-1.393 -0.882,-0.549 -1.725,-1.53 -2.548,-3.146 -0.448,0.435 -0.623,1.037 -0.623,1.735 0,1.817 1.408,3.258 2.175,3.258 m -31.675,-16.458 c 0.698,0.111 0.951,0.468 0.486,1.098 -0.162,0.218 -0.656,0.865 -1.242,1.629 -0.585,-0.764 -1.08,-1.411 -1.241,-1.629 -0.465,-0.63 -0.212,-0.987 0.486,-1.098 l -0.002,-0.62 -3.61,0 0,0.621 c 0.554,0.249 0.813,0.47 1.833,1.685 0.512,0.609 1.12,1.388 1.693,2.136 -0.652,0.85 -1.283,1.668 -1.61,2.096 -0.751,0.983 -1.396,1.203 -2.057,1.275 l 0,0.622 3.901,0 10e-4,-0.62 c -0.682,-0.094 -0.795,-0.424 -0.057,-1.389 0.184,-0.242 0.41,-0.542 0.663,-0.877 0.253,0.335 0.479,0.635 0.663,0.877 0.738,0.965 0.626,1.295 -0.057,1.389 l 0.002,0.62 3.689,0 0,-0.622 c -0.661,-0.072 -1.094,-0.292 -1.845,-1.275 -0.327,-0.428 -0.959,-1.246 -1.61,-2.096 0.573,-0.748 1.18,-1.527 1.691,-2.136 1.022,-1.215 1.281,-1.436 1.833,-1.685 l 0.002,-0.621 -3.611,0 -10e-4,0.62 z m 7.013,3.011 c 0.285,0 0.543,-0.042 0.925,-0.042 3.002,0 4.728,1.821 4.728,3.423 0,0.998 -0.709,1.501 -2.57,1.501 -0.606,0 -1.962,-0.074 -2.805,-0.074 l -3.134,0 0,-0.62 c 0.661,-0.075 0.891,-0.657 0.891,-1.544 l -0.024,-4.105 c 0,-0.823 -0.197,-1.433 -0.895,-1.545 l 0.002,-0.62 3.17,0 0,0.622 c -0.719,0.118 -0.927,0.655 -0.927,1.543 l 0.001,0.81 c 0,0.534 0.411,0.651 0.638,0.651 m -0.621,2.395 c 0,1.253 0.703,1.798 2.091,1.798 1.007,0 1.891,-0.41 1.891,-1.202 0,-1.193 -1.181,-2.211 -2.95,-2.211 -0.524,0 -1.032,0.094 -1.032,1.11 l 0,0.505 z M 0.81,-46.811 c 0.389,0.058 0.394,0.457 0.063,0.95 -0.334,0.498 -1.317,2.009 -2.609,3.878 0.188,0.262 0.353,0.392 0.505,0.601 0.328,-0.397 0.85,-0.849 1.777,-0.849 0.576,0 1.55,0.193 1.55,1.386 0,0.965 -1.114,1.238 -2.121,1.238 -1.387,0 -2.09,-0.544 -2.09,-1.798 l -0.009,-1.775 -0.01,-2.082 c 0,-0.887 0.208,-1.423 0.926,-1.544 l 0.002,-0.62 -3.172,0 -10e-4,0.62 c 0.698,0.111 0.895,0.721 0.895,1.544 l 0.024,4.105 c 0,0.889 -0.23,1.471 -0.891,1.545 l 0,0.621 3.135,0 c 0.841,0 2.198,0.073 2.805,0.073 2.205,0 2.764,-0.455 2.764,-1.476 0,-1.602 -1.479,-2.857 -3.153,-2.857 -0.24,0 -0.379,0.03 -0.46,0.053 1.039,-1.63 1.999,-3.408 3.546,-3.606 l 0,-0.639 -3.476,0 0,0.632 z m 18.448,5.175 c 0.353,0.273 0.624,0.583 0.624,0.91 0,0.367 -0.596,0.637 -1.477,0.637 -1.045,0 -1.542,-0.298 -1.542,-0.706 0,-1.287 5.335,-2.726 5.335,-5.658 0,-0.649 -0.56,-0.977 -1.578,-0.977 -0.624,0 -0.866,-0.024 -2.588,-0.024 -1.721,0 -1.965,0.024 -2.587,0.024 -1.019,0 -1.58,0.328 -1.58,0.977 0,1.604 1.885,2.803 2.369,2.803 0.218,0 0.327,-0.108 0.327,-0.311 0,-0.419 -0.639,-0.654 -0.639,-1.651 0,-0.686 0.801,-1.107 1.913,-1.107 1.653,0 2.089,0.575 2.089,1.26 0,1.831 -5.045,2.78 -5.045,4.935 0,0.76 0.99,1.75 3.633,1.75 2.618,0 3.174,-0.936 3.174,-1.574 0,-0.858 -0.989,-1.477 -1.777,-1.694 -0.259,0.167 -0.393,0.272 -0.651,0.406 M 1.032,-30.014 c -0.521,-0.58 -3.911,-4.246 -4.238,-4.611 -0.353,-0.396 -0.602,-0.719 -0.602,-1.04 0,-0.684 0.817,-0.913 1.474,-0.913 1.101,0 1.885,0.352 1.885,1.037 0,0.998 -0.639,1.231 -0.639,1.652 0,0.202 0.11,0.312 0.328,0.312 0.482,0 2.369,-1.201 2.369,-2.804 0,-0.649 -0.1,-0.737 -0.245,-0.945 l -8.164,0 c 0,0 -0.061,0.602 0.313,1.039 0.316,0.371 3.902,4.361 4.214,4.757 0.311,0.394 0.497,0.705 0.497,1.038 0,0.457 -0.288,0.893 -1.202,0.893 -1.017,0 -1.848,-0.559 -1.848,-1.329 0,-0.29 0.166,-0.863 0.411,-1.116 -0.18,-0.161 -0.349,-0.31 -0.535,-0.483 -0.582,0.25 -2.015,1.557 -2.015,2.866 0,0.706 0.685,0.83 2.076,0.83 0.665,0 2.805,-0.103 3.843,-0.103 1.038,0 2.202,0.021 2.452,0.021 0.103,-0.23 0,-0.686 -0.374,-1.101 m 8.973,-0.036 c -0.521,-0.579 -3.911,-4.246 -4.238,-4.611 -0.353,-0.394 -0.602,-0.719 -0.602,-1.038 0,-0.685 0.818,-0.915 1.475,-0.915 1.101,0 1.885,0.354 1.885,1.039 0,0.997 -0.64,1.23 -0.64,1.65 0,0.204 0.11,0.313 0.328,0.313 0.484,0 2.369,-1.201 2.369,-2.805 0,-0.65 -0.1,-0.736 -0.244,-0.944 l -8.163,0 c 0,0 -0.064,0.603 0.311,1.039 0.317,0.369 3.902,4.361 4.214,4.757 0.313,0.394 0.499,0.705 0.499,1.037 0,0.457 -0.288,0.895 -1.202,0.895 -1.018,0 -1.851,-0.561 -1.851,-1.33 0,-0.292 0.169,-0.864 0.413,-1.118 -0.181,-0.159 -0.35,-0.309 -0.536,-0.482 -0.582,0.249 -2.015,1.559 -2.015,2.866 0,0.706 0.686,0.831 2.077,0.831 0.665,0 2.804,-0.104 3.843,-0.104 1.039,0 2.202,0.022 2.452,0.022 0.102,-0.23 0,-0.685 -0.375,-1.102 M 25.04,-43.649 c 0.218,0 0.327,-0.109 0.327,-0.312 0,-0.421 -0.639,-0.654 -0.639,-1.651 0,-0.686 0.803,-1.107 1.913,-1.107 1.655,0 2.088,0.575 2.088,1.259 0,1.832 -5.043,2.781 -5.043,4.936 0,0.76 0.989,1.749 3.634,1.749 2.617,0 3.173,-0.935 3.173,-1.573 0,-0.857 -0.99,-1.477 -1.777,-1.694 -0.26,0.167 -0.394,0.272 -0.651,0.406 0.353,0.272 0.624,0.585 0.624,0.909 0,0.368 -0.597,0.638 -1.478,0.638 -1.044,0 -1.541,-0.298 -1.541,-0.706 0,-1.288 5.335,-2.724 5.335,-5.658 0,-0.65 -0.56,-0.978 -1.578,-0.978 -0.624,0 -0.867,-0.023 -2.588,-0.023 -1.722,0 -1.965,0.023 -2.588,0.023 -1.018,0 -1.578,0.328 -1.578,0.978 0,1.604 1.885,2.804 2.367,2.804 m -35.96,13.284 c 0,0.997 -0.71,1.499 -2.571,1.499 -0.606,0 -1.962,-0.072 -2.806,-0.072 l -3.134,0 0,-0.623 c 0.662,-0.072 0.891,-0.655 0.891,-1.542 l -0.024,-4.105 c 0,-0.822 -0.196,-1.435 -0.895,-1.547 l 0.003,-0.619 3.17,0 -10e-4,0.621 c -0.718,0.12 -0.926,0.657 -0.926,1.545 l 0,0.809 c 0,0.535 0.413,0.652 0.638,0.652 0.287,0 0.542,-0.042 0.925,-0.042 3.003,0 4.73,1.82 4.73,3.424 m -5.243,-2.602 c -0.524,0 -1.032,0.094 -1.032,1.11 l 0,0.505 c 0,1.253 0.703,1.798 2.091,1.798 1.007,0 1.892,-0.411 1.892,-1.202 0,-1.193 -1.183,-2.211 -2.951,-2.211 m 24.254,-6.024 c 0.841,0 3.05,0.032 3.658,0.032 0.435,0 0.623,-0.167 0.623,-0.541 0,-0.602 -0.665,-1.288 -1.486,-1.652 -0.156,0.136 -0.289,0.24 -0.425,0.384 0.051,0.137 0.124,0.291 0.124,0.457 0,0.488 -0.519,0.704 -1.303,0.704 -1.387,0 -2.091,-0.544 -2.091,-1.798 l -0.002,-0.602 c 0.774,0.111 1.914,-0.069 2.773,-0.069 0.857,0 1.184,0.211 1.504,0.44 0.135,0.101 0.171,0.16 0.249,0.074 0.135,-0.146 0.428,-0.421 0.428,-0.837 0,-0.414 -0.529,-0.643 -1.484,-0.643 -0.956,0 -2.078,0.167 -2.565,0.167 -0.436,0 -0.719,-0.034 -0.909,-0.077 L 7.183,-43.18 7.174,-44.039 c 0,-1.947 0.624,-2.741 2.336,-2.741 1.168,0 1.761,0.482 1.761,1.168 0,0.997 -0.639,1.229 -0.639,1.651 0,0.202 0.108,0.311 0.326,0.311 0.484,0 2.369,-1.199 2.369,-2.803 0,-0.65 -0.561,-1.013 -1.578,-1.013 -0.624,0 -1.927,0.04 -3.648,0.04 l -3.171,0 -0.002,0.62 c 0.699,0.111 0.894,0.722 0.894,1.545 l 0.027,4.104 c 0,0.888 -0.23,1.471 -0.894,1.543 l 0,0.623 3.136,0 z m -38.992,-7.815 c 0.698,0.111 0.894,0.722 0.894,1.545 l 0.024,4.104 c 0,0.889 -0.228,1.471 -0.89,1.545 l 0,0.621 3.135,0 c 0.842,0 3.05,0.031 3.658,0.031 0.435,0 0.622,-0.166 0.622,-0.542 0,-0.6 -0.664,-1.286 -1.484,-1.65 -0.156,0.136 -0.291,0.24 -0.428,0.384 0.053,0.137 0.126,0.291 0.126,0.457 0,0.488 -0.519,0.705 -1.303,0.705 -1.388,0 -2.091,-0.545 -2.091,-1.799 l -0.003,-0.6 c 0.774,0.109 1.915,-0.07 2.774,-0.07 0.857,0 1.184,0.209 1.503,0.442 0.136,0.097 0.172,0.157 0.249,0.071 0.134,-0.146 0.429,-0.421 0.429,-0.837 0,-0.414 -0.53,-0.642 -1.486,-0.642 -0.955,0 -2.075,0.166 -2.565,0.166 -0.435,0 -0.716,-0.034 -0.908,-0.077 l -0.002,-0.228 -0.009,-0.859 c 0,-1.947 0.624,-2.741 2.337,-2.741 1.168,0 1.761,0.482 1.761,1.168 0,0.997 -0.639,1.229 -0.639,1.651 0,0.202 0.109,0.311 0.327,0.311 0.484,0 2.367,-1.198 2.367,-2.803 0,-0.649 -0.56,-1.013 -1.577,-1.013 -0.624,0 -1.927,0.04 -3.648,0.04 l -3.171,0 -0.002,0.62 z"
             style="fill:#ffffff;fill-opacity:1;fill-rule:nonzero;stroke:none"
             id="path3648" />
        </g>
      </g>
    </g>
  </g>
</svg>
